# xmcd
#
# Track frame offsets: 
#        150
#        21387
#        29988
#        50361
#        73002
#        93645
#        113478
#        131259
#        149445
#        175893
#        189759
#        209295
#        227211
#        243642
#        264312
#
# Disc length: 3743 seconds
#
# Revision: 0
# Processed by: cddbd v1.5.2PL0 Copyright (c) Steve Scherf et al.
# Submitted via: ExactAudioCopy v0.95b4
#
DISCID=d90e9d0f
DTITLE=Tyla - Passion, Loyalty And Betrayal
DYEAR=2002
DGENRE=Lo-Fi
TTITLE0=Passion, Loyalty And Betrayal
TTITLE1=Girl On Fire
TTITLE2=St. Valentines Day Mascara
TTITLE3=Charlatan
TTITLE4=Precious Things
TTITLE5=Talkin' 'Bout Keef (Coolest Guy Alive)
TTITLE6=The Wisa
TTITLE7=Posh Junky
TTITLE8=Where Did It All Go Wrong?
TTITLE9=Fakin' Kant
TTITLE10=The Nowhere (Acoustic)
TTITLE11=Death Of A Comedian Blues
TTITLE12=Man Of Contradictions
TTITLE13=The Nowhere (Electric)
TTITLE14=Bolero De Lepanto
EXTD=
EXTT0=
EXTT1=
EXTT2=
EXTT3=
EXTT4=
EXTT5=
EXTT6=
EXTT7=
EXTT8=
EXTT9=
EXTT10=
EXTT11=
EXTT12=
EXTT13=
EXTT14=
PLAYORDER=
